<?xml version="1.0" ?><!DOCTYPE svg  PUBLIC '-//W3C//DTD SVG 1.1//EN'  'http://www.w3.org/Graphics/SVG/1.1/DTD/svg11.dtd'><svg enable-background="new 0 0 512 512" id="Layer_1" version="1.1" viewBox="0 0 512 512" xml:space="preserve" xmlns="http://www.w3.org/2000/svg" xmlns:xlink="http://www.w3.org/1999/xlink"><g><path d="M257.1,507.9C119.1,507.9,8,395.4,8.5,255.4C9.1,117.1,120.7,4.8,259.7,6.2   c136.2,1.4,247,113.2,245.8,253.1C504.4,396.9,394,507.5,257.1,507.9z M257.5,25.9C133,25.3,29.3,126.6,28.1,254.5   c-1.3,130.2,102.7,232.4,226.5,233.7c125.8,1.3,230.7-100.6,231.3-229.2C486.5,129.6,384.3,25.9,257.5,25.9z" fill="#4A64A4"/><path d="M206.9,345c0-27.5-0.1-55,0.1-82.5c0-4.8-1.4-5.8-5.9-5.7c-9.8,0.3-19.7,0-29.5,0.1c-2.8,0-3.8-0.7-3.8-3.6   c0.1-17.3,0.1-34.7,0-52c0-3.1,1-4.1,4-4c10.2,0.1,20.3-0.1,30.5,0.1c3.5,0.1,4.6-1,4.6-4.5c-0.2-15.3-0.1-30.7-0.1-46   c0.1-36.5,22.3-57.8,55.3-64c17.9-3.4,35.9-2,53.8-2.3c9.2-0.1,18.3,0.1,27.5-0.1c3.8-0.1,4.3,1.5,4.3,4.7c-0.1,17.5-0.1,35,0,52.5   c0,3.5-1,4.6-4.5,4.5c-12.3-0.2-24.7-0.1-37-0.1c-12.6,0-19.3,6.9-19.3,19.5c0,10.3,0.1,20.7-0.1,31c-0.1,3.5,1,4.6,4.5,4.5   c17-0.2,34,0,51-0.2c4,0,5.1,1,4.8,5.1c-1.5,17.1-3.6,34.1-6.2,51.1c-0.5,3-1.6,3.8-4.5,3.7c-14.8-0.1-29.7,0.1-44.5-0.2   c-4.2-0.1-5.2,1.2-5.1,5.3c0.1,55.2,0,110.3,0.2,165.5c0,4.2-0.8,5.7-5.4,5.6c-23.2-0.3-46.3-0.2-69.5,0c-4.1,0-5.3-1-5.3-5.2   C207,400.3,206.9,372.7,206.9,345z" fill="#4962A3"/></g></svg>